# xmcd
#
# Track frame offsets:
#	150
#	15860
#	31637
#	47412
#	63520
#	79715
#	94222
#	110220
#	125632
#	140695
#	155677
#	171467
#	185787
#	199952
#	212925
#	228667
#	244462
#	258725
#	271905
#
# Disc length: 3816 seconds
#
# Revision: 0
# Processed by: cddbd v1.4PL0 Copyright (c) Steve Scherf et al.
# Submitted via: audiograbber 1.80
#
DISCID=220ee613
DTITLE=Ishman Bracey - Complete Recordings (1928 - 30)
DYEAR=1900
DGENRE=
TTITLE0=Saturday Blues 
TTITLE1=Left Alone Blues 
TTITLE2=Leavin' Town Blues (1)
TTITLE3=Leavin' Town Blues (2)
TTITLE4=My Brown Mamma Blues (1) 
TTITLE5=My Brown Mamma Blues (2)
TTITLE6=Trouble Hearted Blues (1) 
TTITLE7=Trouble Hearted Blues (2)
TTITLE8=The Four Day Blues (1)
TTITLE9=The Four Day Blues (2) 
TTITLE10=Jake Liqour Blues
TTITLE11=Family Stirving 
TTITLE12=Mobile Stomp 
TTITLE13=Farish Street Rag 
TTITLE14=Woman Woman Blues (1)  
TTITLE15=Woman Woman Blues (2)
TTITLE16=Suitcase Full of Blues 
TTITLE17=Bust Up Blues 
TTITLE18=Pay Me No Mind  
EXTD=
EXTT0=
EXTT1=
EXTT2=
EXTT3=
EXTT4=
EXTT5=
EXTT6=
EXTT7=
EXTT8=
EXTT9=
EXTT10=
EXTT11=
EXTT12=
EXTT13=
EXTT14=
EXTT15=
EXTT16=
EXTT17=
EXTT18=
PLAYORDER=
